<svg width="262" height="99" viewBox="0 0 262 99" fill="none" xmlns="http://www.w3.org/2000/svg">
<rect opacity="0.51" x="71.8447" y="40.3302" width="56.5224" height="34.7823" transform="rotate(135 71.8447 40.3302)" fill="url(#paint0_radial_190_741)"/>
<path d="M16.6539 50.7582L17.4115 50.0516L16.6818 49.3162L9.40927 41.9874L9.4092 25.1008L17.8469 16.7399L63.48 16.7399L71.6828 25.0928V40.2054L64.5719 47.5007L63.8968 48.1934L64.5635 48.8942L71.6828 56.3771V70.9177L63.4889 79.0135H17.8381L9.4092 70.9096V57.5149L16.6539 50.7582Z" stroke="url(#paint1_linear_190_741)" stroke-width="2.00883"/>
<path d="M25.4639 8.9013L39.2793 7.90766L78.9144 47.5428L71.51 54.9472L25.4639 8.9013Z" stroke="black" stroke-width="0.803531"/>
<path d="M25.4639 8.9013L39.2793 7.90766L78.9144 47.5428L71.51 54.9472L25.4639 8.9013Z" stroke="url(#paint2_linear_190_741)" stroke-width="0.803531"/>
<path d="M56.3563 90.1446L42.2784 90.8758L1.00042 49.5978L8.40485 42.1933L56.3563 90.1446Z" stroke="url(#paint3_linear_190_741)" stroke-width="0.803531"/>
<path d="M34.0557 16.9287L64.5545 16.9287L96.2809 47.8765L79.8844 64.2731L34.0557 16.9287Z" fill="black" fill-opacity="0.35"/>
<path d="M64.391 17.3305L95.7092 47.8801L79.889 63.7002L35.0037 17.3305L64.391 17.3305Z" stroke="white" stroke-opacity="0.19" stroke-width="0.803531"/>
<rect x="63.8057" y="48.1943" width="22.9023" height="22.7388" transform="rotate(-45 63.8057 48.1943)" fill="black" fill-opacity="0.35"/>
<rect x="64.3738" y="48.1943" width="22.0988" height="21.9352" transform="rotate(-45 64.3738 48.1943)" stroke="#A3FFFF" stroke-opacity="0.45" stroke-width="0.803531"/>
<mask id="path-9-inside-1_190_741" fill="white">
<path d="M79.9224 64.4984L55.172 89.2488L45.8971 79.9739L70.6475 55.2235L79.9224 64.4984Z"/>
</mask>
<path d="M79.9224 64.4984L55.172 89.2488L45.8971 79.9739L70.6475 55.2235L79.9224 64.4984Z" fill="black" fill-opacity="0.35"/>
<path d="M79.3542 63.9302L54.6038 88.6806L55.7401 89.817L80.4905 65.0666L79.3542 63.9302Z" fill="white" fill-opacity="0.19" mask="url(#path-9-inside-1_190_741)"/>
<rect opacity="0.7" x="32.9995" y="17.2014" width="53.7421" height="34.7823" transform="rotate(45 32.9995 17.2014)" fill="url(#paint4_radial_190_741)"/>
<path d="M33.2979 17.2015L8.54748 41.9519V33.9172L8.54748 25.8824L25.1021 8.81443L33.2979 17.2015Z" fill="black" fill-opacity="0.35" stroke="white" stroke-opacity="0.19" stroke-width="0.803531"/>
<path d="M8.50086 57.2206L31.8177 80.5137L17.1822 80.5137L8.50117 70.9311L8.50086 57.2206Z" fill="black" fill-opacity="0.35"/>
<path d="M8.90294 70.7762L8.90265 58.1898L30.8471 80.1119L17.3603 80.1119L8.90294 70.7762Z" stroke="white" stroke-opacity="0.19" stroke-width="0.803531"/>
<line opacity="0.81" x1="79.9625" y1="59.1294" x2="86.4347" y2="52.751" stroke="url(#paint5_linear_190_741)" stroke-width="0.401765"/>
<line opacity="0.81" x1="78.315" y1="57.6287" x2="84.7872" y2="51.2502" stroke="url(#paint6_linear_190_741)" stroke-width="0.401765"/>
<line opacity="0.81" x1="76.7262" y1="55.9402" x2="83.1984" y2="49.5618" stroke="url(#paint7_linear_190_741)" stroke-width="0.401765"/>
<line opacity="0.81" x1="81.835" y1="45.3194" x2="88.2134" y2="51.7916" stroke="url(#paint8_linear_190_741)" stroke-width="0.401765"/>
<line opacity="0.81" x1="83.3359" y1="43.6717" x2="89.7144" y2="50.1439" stroke="url(#paint9_linear_190_741)" stroke-width="0.401765"/>
<line opacity="0.81" x1="85.0239" y1="42.0835" x2="91.4024" y2="48.5557" stroke="url(#paint10_linear_190_741)" stroke-width="0.401765"/>
<path opacity="0.81" d="M82.072 38.1673L77.8283 42.4106" stroke="url(#paint11_linear_190_741)" stroke-width="0.401765"/>
<path opacity="0.81" d="M80.5779 36.7603L76.3342 41.0036" stroke="url(#paint12_linear_190_741)" stroke-width="0.401765"/>
<path opacity="0.81" d="M83.7918 39.9745L79.548 44.2178" stroke="url(#paint13_linear_190_741)" stroke-width="0.401765"/>
<path d="M96.2701 47.6078L81.1496 32.4911L242.486 31.4224L260.26 47.1756L96.2701 47.6078Z" fill="#130500" fill-opacity="0.7" stroke="#FF5C00"/>
<path opacity="0.72" d="M81.1085 63.7669L89.1175 55.7236H256.403L248.809 63.5956L81.1085 63.7669Z" fill="#001217" stroke="#28FFF2"/>
<defs>
<radialGradient id="paint0_radial_190_741" cx="0" cy="0" r="1" gradientUnits="userSpaceOnUse" gradientTransform="translate(100.106 57.7213) rotate(90) scale(17.3911 28.2612)">
<stop stop-color="#095070"/>
<stop offset="1" stop-color="#053145" stop-opacity="0.97"/>
</radialGradient>
<linearGradient id="paint1_linear_190_741" x1="78.3037" y1="15.7355" x2="0.89798" y2="89.3154" gradientUnits="userSpaceOnUse">
<stop stop-color="#00FFF0"/>
<stop offset="1" stop-color="white"/>
</linearGradient>
<linearGradient id="paint2_linear_190_741" x1="16.5921" y1="0.590942" x2="76.0496" y2="49.2436" gradientUnits="userSpaceOnUse">
<stop stop-color="#5AEAD9"/>
<stop offset="1" stop-color="white"/>
</linearGradient>
<linearGradient id="paint3_linear_190_741" x1="2.85124" y1="45.7004" x2="110.814" y2="86.89" gradientUnits="userSpaceOnUse">
<stop stop-color="#5AEAD9"/>
<stop offset="0.889246" stop-color="white" stop-opacity="0"/>
</linearGradient>
<radialGradient id="paint4_radial_190_741" cx="0" cy="0" r="1" gradientUnits="userSpaceOnUse" gradientTransform="translate(59.8706 34.5926) rotate(91.8529) scale(31.5727 48.7829)">
<stop stop-color="#00B7FF" stop-opacity="0.56"/>
<stop offset="0.9999" stop-color="#00B7FF" stop-opacity="0"/>
<stop offset="1" stop-color="#6CD6FF" stop-opacity="0"/>
</radialGradient>
<linearGradient id="paint5_linear_190_741" x1="81.0968" y1="60.4203" x2="87.6598" y2="53.9462" gradientUnits="userSpaceOnUse">
<stop stop-color="#71DDEC"/>
<stop offset="1" stop-color="white" stop-opacity="0.44"/>
</linearGradient>
<linearGradient id="paint6_linear_190_741" x1="79.4494" y1="58.9196" x2="86.0124" y2="52.4455" gradientUnits="userSpaceOnUse">
<stop stop-color="#71DDEC"/>
<stop offset="1" stop-color="white" stop-opacity="0.44"/>
</linearGradient>
<linearGradient id="paint7_linear_190_741" x1="77.8605" y1="57.2311" x2="84.4235" y2="50.757" gradientUnits="userSpaceOnUse">
<stop stop-color="#71DDEC"/>
<stop offset="1" stop-color="white" stop-opacity="0.44"/>
</linearGradient>
<linearGradient id="paint8_linear_190_741" x1="81.6919" y1="45.4604" x2="88.0703" y2="51.9326" gradientUnits="userSpaceOnUse">
<stop stop-color="#71DDEC"/>
<stop offset="1" stop-color="#71DDEC" stop-opacity="0"/>
</linearGradient>
<linearGradient id="paint9_linear_190_741" x1="83.1929" y1="43.8127" x2="89.5713" y2="50.2849" gradientUnits="userSpaceOnUse">
<stop stop-color="#71DDEC"/>
<stop offset="1" stop-color="#71DDEC" stop-opacity="0"/>
</linearGradient>
<linearGradient id="paint10_linear_190_741" x1="84.8809" y1="42.2245" x2="91.2593" y2="48.6967" gradientUnits="userSpaceOnUse">
<stop stop-color="#71DDEC"/>
<stop offset="1" stop-color="#71DDEC" stop-opacity="0"/>
</linearGradient>
<linearGradient id="paint11_linear_190_741" x1="82.1025" y1="38.1058" x2="77.7977" y2="42.4107" gradientUnits="userSpaceOnUse">
<stop stop-color="#71DDEC"/>
<stop offset="1" stop-color="white" stop-opacity="0.44"/>
</linearGradient>
<linearGradient id="paint12_linear_190_741" x1="80.6084" y1="36.6988" x2="76.3035" y2="41.0037" gradientUnits="userSpaceOnUse">
<stop stop-color="#71DDEC"/>
<stop offset="1" stop-color="white" stop-opacity="0.44"/>
</linearGradient>
<linearGradient id="paint13_linear_190_741" x1="83.8223" y1="39.9131" x2="79.5174" y2="44.2179" gradientUnits="userSpaceOnUse">
<stop stop-color="#71DDEC"/>
<stop offset="1" stop-color="white" stop-opacity="0.44"/>
</linearGradient>
</defs>
</svg>
