<svg width="186" height="17" viewBox="0 0 186 17" fill="none" xmlns="http://www.w3.org/2000/svg">
<path d="M22.3387 16.2671L16.2848 16.2671L0.999933 1.35047L37.9883 1.35047L22.3387 16.2671Z" fill="#D55823" stroke="#EB7B44" stroke-width="0.803531"/>
<path d="M37.5675 1.35046L42.747 1.35046L58.9063 16.2671L21.918 16.2671L37.5675 1.35046Z" fill="#D55823" stroke="#EB7B44" stroke-width="0.803531"/>
<path d="M64.1742 16.2671L58.9947 16.2671L42.8354 1.35047L79.8237 1.35047L64.1742 16.2671Z" fill="#D55823" stroke="#EB7B44" stroke-width="0.803531"/>
<path d="M79.4025 1.35046L84.582 1.35046L100.741 16.2671L63.7529 16.2671L79.4025 1.35046Z" fill="#D55823" stroke="#EB7B44" stroke-width="0.803531"/>
<path d="M106.01 16.2671L100.83 16.2671L84.6708 1.35047L121.659 1.35047L106.01 16.2671Z" fill="#D55823" stroke="#EB7B44" stroke-width="0.803531"/>
<path d="M121.238 1.35046L126.418 1.35046L142.577 16.2671L105.589 16.2671L121.238 1.35046Z" fill="#D55823" stroke="#EB7B44" stroke-width="0.803531"/>
<path d="M147.845 16.2671L142.666 16.2671L126.506 1.35047L163.495 1.35047L147.845 16.2671Z" fill="#D55823" stroke="#EB7B44" stroke-width="0.803531"/>
<path d="M163.074 1.35046L168.253 1.35046L184.413 16.2671L147.424 16.2671L163.074 1.35046Z" fill="#D55823" stroke="#EB7B44" stroke-width="0.803531"/>
</svg>
