<svg width="113" height="87" viewBox="0 0 113 87" fill="none" xmlns="http://www.w3.org/2000/svg">
<path d="M102.038 20.9923C90.6378 3.09229 66.2378 -1.80771 47.5378 9.99229C41.9492 13.5456 37.2872 18.379 33.9379 24.0923L0.33783 82.9923C0.116886 83.3536 0 83.7688 0 84.1923C0 84.6158 0.116886 85.031 0.33783 85.3923C0.579155 85.7732 0.922928 86.0784 1.32971 86.2729C1.7365 86.4675 2.18982 86.5435 2.63782 86.4923L70.1378 81.3923C76.7347 80.7272 83.0946 78.573 88.7379 75.0923C107.438 63.1923 113.338 38.9923 102.038 20.9923Z" fill="black" fill-opacity="0.22"/>
<path d="M106.938 17.8922C103.382 12.2623 98.4223 7.65402 92.547 4.51968C86.6717 1.38534 80.0823 -0.167268 73.4257 0.0142759C66.7691 0.195819 60.2742 2.10527 54.5784 5.55518C48.8827 9.0051 44.182 13.8769 40.9379 19.6922L9.43787 77.1922C9.19268 77.5444 9.06122 77.9632 9.06122 78.3922C9.06122 78.8213 9.19268 79.2401 9.43787 79.5922C9.67377 79.9614 9.99911 80.265 10.3837 80.4748C10.7683 80.6846 11.1997 80.7938 11.6378 80.7922L77.2379 76.8922C83.5924 76.3948 89.7329 74.3708 95.1378 70.9922C103.736 65.5089 109.808 56.8381 112.02 46.8828C114.233 36.9275 112.405 26.5012 106.938 17.8922Z" fill="white"/>
<path d="M76.7379 27.3923C75.3452 27.6379 74.0269 28.1979 72.8832 29.0297C71.7396 29.8615 70.8006 30.9431 70.1378 32.1923L69.3378 34.2923C69.2216 34.9867 69.1548 35.6885 69.1378 36.3923C69.1479 37.8622 69.5262 39.3062 70.2379 40.5923C70.962 41.8012 71.9541 42.8276 73.1378 43.5923C74.0021 44.2252 74.9904 44.6682 76.0378 44.8923L77.1378 45.0923C78.566 45.2462 80.0099 45.0399 81.3378 44.4923C82.6654 43.9619 83.8357 43.1014 84.7379 41.9923C85.7655 40.9512 86.4614 39.6288 86.7379 38.1923C87.0565 36.806 87.0221 35.3619 86.6378 33.9923C86.2829 32.5635 85.5588 31.2531 84.5378 30.1923C83.617 29.1046 82.4016 28.306 81.0378 27.8923L80.0378 27.5923C78.952 27.3762 77.8418 27.3089 76.7379 27.3923Z" fill="#CCCCCC"/>
</svg>
